<?xml version="1.0" encoding="UTF-8"?>
<svg id="Layer_1" data-name="Layer 1" xmlns="http://www.w3.org/2000/svg" viewBox="0 0 960 188.79">
  <defs>
    <style>
      .cls-1 {
        fill: #032f4d;
      }
    </style>
  </defs>
  <path class="cls-1" d="M583.6,112.99h-4.97v-36.67h4.97c18.87-.14,34.12-15.48,34.12-34.38,0-22.87-18.54-41.42-41.41-41.42h-251.29v75.65h39.2v-38.18h214.3v38.18h-214.3v36.81h214.3v38.33h-214.3v-38.33s-39.2,0-39.2,0v75.8s251.29,0,251.29,0c22.87,0,41.41-18.55,41.41-41.42,0-18.9-15.25-34.24-34.12-34.38Z"/>
  <g>
    <rect class="cls-1" x="689.51" y="76.47" width="231.28" height="36.81"/>
    <path class="cls-1" d="M684.43,76.32h5.08v-38.33h213.86c10.58,0,19.16,8.57,19.16,19.16h37.47c0-31.28-25.35-56.63-56.63-56.63h-211.65c-22.87,0-41.41,18.55-41.41,41.42,0,18.9,15.25,34.24,34.12,34.38Z"/>
    <path class="cls-1" d="M925.88,112.99h-5.08v38.33s-213.86,0-213.86,0c-10.58,0-19.16-8.58-19.16-19.16h-37.47c0,31.28,25.35,56.63,56.63,56.63h211.65c22.87,0,41.41-18.55,41.41-41.42,0-18.9-15.25-34.24-34.12-34.38Z"/>
  </g>
  <g>
    <path class="cls-1" d="M292.7,37.47V0H41.41C18.54,0,0,18.55,0,41.42,0,60.32,15.25,75.66,34.12,75.8h5.08v-38.33h253.5Z"/>
    <rect class="cls-1" x="39.2" y="75.8" width="215" height="36.81"/>
    <rect class="cls-1" x="0" y="112.61" width="39.2" height="75.51"/>
  </g>
</svg>